# xmcd
#
# Track frame offsets:
#	150
#	63064
#	84401
#	99056
#	121521
#	153092
#	171300
#	196240
#	217273
#	247185
#
# Disc length: 4682 seconds
#
# Revision: 1
# Processed by: cddbd v1.5.2PL0 Copyright (c) Steve Scherf et al.
# Submitted via: audiograbber 1.83.01
#
DISCID=7812480a
DTITLE=Grateful Dead - 73-11-30A Boston Music Hall, Boston MA
DYEAR=1900
DGENRE=
TTITLE0=Morning Dew
TTITLE1=Dire Wolf
TTITLE2=BIODTL
TTITLE3=Brown Eyed Women
TTITLE4=Black Throated Wind
TTITLE5=El Paso
TTITLE6=They Love Each Other
TTITLE7=Big River
TTITLE8=Loser
TTITLE9=Playing In The Band
EXTD=
EXTT0=
EXTT1=
EXTT2=
EXTT3=
EXTT4=
EXTT5=
EXTT6=
EXTT7=
EXTT8=
EXTT9=
PLAYORDER=
